<svg width="730" height="475" viewBox="0 0 730 475" fill="none" xmlns="http://www.w3.org/2000/svg">
<rect x="2.99054" y="3.00994" width="275.769" height="288.711" transform="matrix(0.999994 0.00331749 -0.00314765 0.999995 447.464 2.26463)" stroke="white" stroke-width="6"/>
<rect x="4.26452" y="3.52625" width="444" height="466" transform="rotate(0.0863253 4.26452 3.52625)" stroke="white" stroke-width="6"/>
<rect x="2.99054" y="3.00994" width="167.209" height="174.671" transform="matrix(0.999994 0.00331749 -0.00314765 0.999995 555.109 293.49)" stroke="white" stroke-width="6"/>
<rect x="2.99054" y="3.00994" width="106.22" height="108.04" transform="matrix(0.999994 0.00331749 -0.00314765 0.999995 446.339 359.76)" stroke="white" stroke-width="6"/>
<rect x="2.99054" y="3.00994" width="40.3517" height="37.566" transform="matrix(0.999994 0.00331749 -0.00314765 0.999995 512.416 293.349)" stroke="white" stroke-width="6"/>
<rect x="2.99054" y="3.00994" width="20.8352" height="27.3489" transform="matrix(0.999994 0.00331749 -0.00314765 0.999995 531.816 330.539)" stroke="white" stroke-width="6"/>
<rect x="2.99054" y="3.00994" width="18.3956" height="29.0072" transform="matrix(0.999994 0.00331749 -0.00314765 0.999995 512.299 330.515)" stroke="white" stroke-width="6"/>
<path d="M447.441 6.7594C3.44283 5.28642 3.20051 469.778 3.20051 469.778" stroke="white" stroke-width="6"/>
<path d="M724.65 293.422C724.65 293.422 729.209 7.6942 451.1 6.77154" stroke="white" stroke-width="6"/>
<path d="M725.242 299.19C725.242 299.19 726.528 472.178 553.319 471.603" stroke="white" stroke-width="6"/>
<path d="M449.975 364.267C449.628 474.463 550.881 470.954 550.881 470.954" stroke="white" stroke-width="6"/>
<path d="M449.987 360.423C450.186 297.637 511.972 296.74 511.972 296.74" stroke="white" stroke-width="6"/>
<path d="M516.495 296.771C550.648 296.885 556.202 330.663 556.202 330.663" stroke="white" stroke-width="6"/>
<path d="M554.958 338.347C554.885 361.412 536.591 360.71 536.591 360.71" stroke="white" stroke-width="6"/>
<path d="M517.746 348.3C517.746 348.3 514.93 360.763 533.227 360.824" stroke="white" stroke-width="6"/>
<line x1="516.747" y1="347.299" x2="533.747" y2="347.324" stroke="white" stroke-width="6"/>
</svg>
