<svg xmlns="http://www.w3.org/2000/svg" viewBox="0 0 686.55 687.89"><defs><style>.cls-1{fill:#020202;}.cls-2{fill:none;stroke:#020202;stroke-miterlimit:10;stroke-width:10px;}</style></defs><title>logo_preto</title><g id="Camada_2" data-name="Camada 2"><g id="Camada_3" data-name="Camada 3"><ellipse class="cls-1" cx="56.79" cy="136.73" rx="56.79" ry="56.84"/><ellipse class="cls-1" cx="211.08" cy="412.97" rx="39.5" ry="39.33"/><ellipse class="cls-1" cx="570.99" cy="46.44" rx="46.4" ry="46.44"/><ellipse class="cls-1" cx="123.53" cy="637.07" rx="34.94" ry="34.81"/><ellipse class="cls-1" cx="436.08" cy="255.22" rx="38.5" ry="38.48"/><ellipse class="cls-1" cx="403.08" cy="511.02" rx="38.5" ry="38.45"/><ellipse class="cls-1" cx="635.07" cy="636.47" rx="51.48" ry="51.42"/><line class="cls-2" x1="38.58" y1="130.26" x2="440.58" y2="256.87"/><line class="cls-2" x1="127.58" y1="650.2" x2="403.58" y2="511.3"/><line class="cls-2" x1="38.58" y1="130.26" x2="128.58" y2="650.2"/><line class="cls-2" x1="641.58" y1="648.97" x2="127.58" y2="650.2"/><line class="cls-2" x1="440.58" y1="251.95" x2="641.58" y2="648.97"/><line class="cls-2" x1="577.58" y1="51.89" x2="440.58" y2="256.87"/><line class="cls-2" x1="577.58" y1="44.89" x2="641.58" y2="648.89"/><line class="cls-2" x1="38.58" y1="130.26" x2="577.58" y2="44.89"/><line class="cls-2" x1="43.58" y1="129.03" x2="218.58" y2="412.97"/><line class="cls-2" x1="662.58" y1="648.97" x2="218.58" y2="419.12"/><line class="cls-2" x1="118.58" y1="648.97" x2="223.58" y2="401.91"/><line class="cls-2" x1="223.58" y1="401.91" x2="440.58" y2="251.95"/><line class="cls-2" x1="403.58" y1="511.3" x2="440.58" y2="251.95"/></g></g></svg>